<?xml version="1.0" encoding="UTF-8" standalone="no"?>
<!-- Created with Inkscape (http://www.inkscape.org/) -->

<svg
   width="250"
   height="60"
   viewBox="0 0 250 60"
   version="1.1"
   id="svg1"
   inkscape:version="1.4 (e7c3feb100, 2024-10-09)"
   sodipodi:docname="logogrupy.svg"
   xmlns:inkscape="http://www.inkscape.org/namespaces/inkscape"
   xmlns:sodipodi="http://sodipodi.sourceforge.net/DTD/sodipodi-0.dtd"
   xmlns="http://www.w3.org/2000/svg"
   xmlns:svg="http://www.w3.org/2000/svg">
  <sodipodi:namedview
     id="namedview1"
     pagecolor="#ffffff"
     bordercolor="#000000"
     borderopacity="0.25"
     inkscape:showpageshadow="2"
     inkscape:pageopacity="0.0"
     inkscape:pagecheckerboard="0"
     inkscape:deskcolor="#d1d1d1"
     inkscape:document-units="px"
     inkscape:zoom="2.116"
     inkscape:cx="181.00189"
     inkscape:cy="5.4347826"
     inkscape:window-width="1920"
     inkscape:window-height="1011"
     inkscape:window-x="0"
     inkscape:window-y="32"
     inkscape:window-maximized="1"
     inkscape:current-layer="layer1" />
  <defs
     id="defs1">
    <linearGradient
       x1="0.12958999"
       y1="0.12039"
       x2="0.79639"
       y2="0.78200996"
       gradientUnits="userSpaceOnUse"
       gradientTransform="matrix(189.37904,0,0,189.8082,0.14501363,-17.564205)"
       spreadMethod="pad"
       id="linearGradient6">
      <stop
         style="stop-opacity:1;stop-color:#80411f"
         offset="0"
         id="stop5" />
      <stop
         style="stop-opacity:1;stop-color:#b6693f"
         offset="1"
         id="stop6" />
    </linearGradient>
    <clipPath
       clipPathUnits="userSpaceOnUse"
       id="clipPath6">
      <path
         d="m 891.224,1449.7687 h 479.25 v 472.5 h -479.25 z"
         transform="matrix(0.53443749,0,0,0.53443749,-476.22989,-774.71073)"
         clip-rule="evenodd"
         id="path6" />
    </clipPath>
    <linearGradient
       x1="0.19128001"
       y1="0.20579"
       x2="0.90741998"
       y2="0.88428998"
       gradientUnits="userSpaceOnUse"
       gradientTransform="matrix(189.38476,0,0,189.80915,66.145219,46.684426)"
       spreadMethod="pad"
       id="linearGradient8">
      <stop
         style="stop-opacity:1;stop-color:#ff914d"
         offset="0"
         id="stop7" />
      <stop
         style="stop-opacity:1;stop-color:#ffde59"
         offset="1"
         id="stop8" />
    </linearGradient>
    <clipPath
       clipPathUnits="userSpaceOnUse"
       id="clipPath8">
      <path
         d="m 891.224,1449.7687 h 479.25 v 472.5 h -479.25 z"
         transform="matrix(0.53443749,0,0,0.53443749,-476.22989,-774.71073)"
         clip-rule="evenodd"
         id="path8" />
    </clipPath>
  </defs>
  <g
     inkscape:label="Camada 1"
     inkscape:groupmode="layer"
     id="layer1">
    <g
       id="g2"
       transform="matrix(0.33363345,0,0,0.33363345,-6.2322298,-46.457143)">
      <path
         id="path5"
         d="m 126.92,0.072276 c -64.836,4.01e-6 -60.787996,28.114999 -60.787996,28.114999 l 0.072,29.128002 H 128.07001 V 66.06028 H 41.631006 c 0,0 -41.48599973,-4.705002 -41.48599973,60.71 -4.5e-4,65.42 36.20999873,63.09999 36.20999873,63.09999 h 21.610001 v -30.36 c 0,0 -1.165001,-36.21 35.631996,-36.21 h 61.362988 c 0,0 34.47,0.56 34.47,-33.317001 V 33.970268 c 0,0 5.24001,-33.89799856 -62.50999,-33.89799856 v 2.76e-4 z M 92.802002,19.659275 c 6.154999,0 11.127998,4.975 11.127998,11.130001 0,6.155998 -4.972999,11.131001 -11.127998,11.131001 -6.155998,0 -11.130997,-4.974999 -11.130997,-11.131001 0,-6.155001 4.974999,-11.130001 11.130997,-11.130001 z"
         style="fill:url(#linearGradient6);fill-opacity:1;fill-rule:nonzero;stroke:none"
         transform="matrix(0.57500982,0,0,0.57500982,153.56211,156.50636)"
         clip-path="url(#clipPath6)" />
      <path
         id="path7"
         d="m 128.75999,254.13 c 64.83001,0 60.78,-28.11999 60.78,-28.11999 l -0.07,-29.13001 h -61.87 v -8.74 h 86.44 c 0,0 41.49001,4.7 41.49001,-60.71 0,-65.418998 -36.20999,-63.098999 -36.20999,-63.098999 h -21.61 v 30.355004 c 0,0 1.16,36.214005 -35.63001,36.214005 h -61.36999 c 0,0 -34.471004,-0.56 -34.471004,33.31999 v 56.01 c 0,0 -5.235001,33.9 62.521004,33.9 z m 34.11,-19.58999 c -6.14999,0 -11.13,-4.98 -11.13,-11.13001 0,-6.16 4.98,-11.13 11.13,-11.13 6.16001,0 11.13001,4.97 11.13001,11.13 0,6.15 -4.97,11.13001 -11.13001,11.13001 z"
         style="fill:url(#linearGradient8);fill-opacity:1;fill-rule:nonzero;stroke:none"
         transform="matrix(0.57500982,0,0,0.57500982,153.56211,156.50636)"
         clip-path="url(#clipPath8)" />
      <g
         id="g8"
         transform="matrix(0.96033381,0,0,0.96033381,-120.27476,-288.95993)"
         style="fill:#ffffff">
        <g
           id="g9"
           style="fill:#ffffff" />
        <path
           id="path9"
           d="m 22.613687,-20.254706 h -8.405671 v -3.985822 c 0,-0.703486 -0.401476,-1.056134 -1.20081,-1.056134 h -1.728877 c -0.795718,0 -1.193577,0.352648 -1.193577,1.056134 v 17.6649303 c 0,0.7052952 0.397859,1.0561343 1.193577,1.0561343 h 1.728877 c 0.799334,0 1.20081,-0.3508391 1.20081,-1.0561343 v -5.1359953 h -2.40162 v -5.331308 h 10.807291 v 11.0894098 c 0,3.9695456 -2.354601,5.953414154439 -7.060185,5.953414154439 H 8.7392661 c -4.7073928,0 -7.060185,-1.983868554439 -7.060185,-5.953414154439 V -24.862634 c 0,-3.967737 2.3527922,-5.953414 7.060185,-5.953414 h 6.8142359 c 4.705584,0 7.060185,1.985677 7.060185,5.953414 z m 18.18938,9.309896 V -7.7045561e-5 H 32.397396 V -30.816048 h 14.257812 c 4.705585,0 7.060185,1.985677 7.060185,5.953414 v 7.964409 c 0,3.04362 -1.378038,4.917173 -4.130497,5.62066 L 55.248958,-7.7045561e-5 H 46.228414 L 41.331134,-10.94481 Z m 3.313079,-13.874421 h -3.313079 v 8.159722 h 3.313079 c 0.799334,0 1.20081,-0.350839 1.20081,-1.056135 v -6.047453 c 0,-0.703487 -0.401476,-1.056134 -1.20081,-1.056134 z m 32.203051,-5.996817 h 8.405671 v 24.8625568 c 0,3.9695456 -2.3546,5.953414154439 -7.060185,5.953414154439 h -7.103587 c -4.707393,0 -7.060185,-1.983868554439 -7.060185,-5.953414154439 V -30.816048 h 8.405671 v 23.7630198 c 0,0.6998698 0.399667,1.0489004 1.20081,1.0489004 h 2.010995 c 0.799335,0 1.20081,-0.3490306 1.20081,-1.0489004 z m 18.670428,0 h 14.257815 c 4.70558,0 7.06018,1.985677 7.06018,5.953414 v 8.832465 c 0,3.96412 -2.3546,5.94618 -7.06018,5.94618 H 103.3953 V -7.7045561e-5 h -8.405675 z m 12.919555,13.679108 v -6.626157 c 0,-0.703487 -0.40147,-1.056134 -1.20081,-1.056134 h -3.31307 v 8.738425 h 3.31307 c 0.79934,0 1.20081,-0.350839 1.20081,-1.056134 z M 140.59509,-7.7045561e-5 h -8.39843 V -9.9827156 l -8.49972,-20.8333324 h 8.59375 l 4.02923,13.006365 3.74711,-13.006365 h 8.54311 l -8.01505,20.732059 z m 0,0"
           style="fill:#ffffff;fill-opacity:1;fill-rule:nonzero;stroke:none"
           aria-label="GRUPY"
           transform="matrix(2.1600001,0,0,2.1600001,461.20131,550.75798)" />
      </g>
      <g
         id="g10"
         transform="matrix(0.96033381,0,0,0.96033381,-120.27476,-288.95993)"
         style="fill:#e6e6e6">
        <g
           id="g11"
           style="fill:#e6e6e6" />
        <path
           id="path11"
           d="m 10.625839,-7.7834726 c 0.593172,0.3526476 1.045284,0.8065683 1.359954,1.3599537 0.312862,0.5551938 0.470197,1.1971932 0.470197,1.9241897 0,0.6799769 -0.164569,1.3165509 -0.491898,1.9097222 -0.323713,0.5895544 -0.784867,1.1103877 -1.381655,1.5624999 -0.540727,0.41594332 -1.1555992,0.73423034 -1.8446183,0.95486112 -0.6908275,0.21701389 -1.4214409,0.33275462 -2.1918402,0.34722221 -0.7667824,0 -1.5010127,-0.10669849 -2.199074,-0.31828702 C 3.6524601,-0.25489933 3.0339705,-0.5749948 2.4950527,-1.0054057 1.6848676,-1.6130445 1.1296737,-2.3508917 0.83127963,-3.2189473 L 3.8188374,-4.6078361 c 0,0.1446759 0.04702,0.3237124 0.1446759,0.5353009 0.1012732,0.213397 0.2567998,0.4195602 0.4701968,0.6221065 0.2170139,0.1989294 0.4937066,0.3689236 0.8318865,0.5135995 0.3417969,0.141059 0.7613571,0.2097801 1.2586805,0.2097801 0.3996673,0 0.7523148,-0.050637 1.0561343,-0.1519097 0.3074363,-0.1012732 0.564236,-0.2260562 0.7667823,-0.3761574 0.2061632,-0.1482929 0.3634983,-0.3182871 0.4701968,-0.5063658 0.1103154,-0.1916956 0.1663773,-0.390625 0.1663773,-0.5931712 0,-0.2260562 -0.075955,-0.4376447 -0.2242477,-0.6365741 C 8.6094188,-5.1883482 8.3779374,-5.3456833 8.0650757,-5.461424 7.4954143,-5.658545 6.8932007,-5.8249223 6.2566267,-5.960556 5.6236695,-6.0943812 5.0087969,-6.2661839 4.4120087,-6.4741555 3.8188374,-6.6803187 3.2636436,-6.9533945 2.7482356,-7.2915744 2.2364445,-7.6333713 1.8313519,-8.1108019 1.5329578,-8.7238661 1.2616905,-9.2627839 1.1278653,-9.8396791 1.1278653,-10.452743 c 0,-0.683594 0.1591435,-1.345486 0.4774305,-1.98206 0.3219039,-0.640191 0.761357,-1.180918 1.3165509,-1.620371 0.5244502,-0.414135 1.1140046,-0.730613 1.7650462,-0.947627 0.6546586,-0.220631 1.3472945,-0.332755 2.0760995,-0.332755 0.7233796,0 1.4142071,0.106699 2.0760995,0.318287 0.6600839,0.213397 1.2550631,0.526259 1.7867471,0.940394 0.509983,0.381583 0.915076,0.828269 1.215278,1.338252 l -2.4305552,1.663773 c -0.3002026,-0.408709 -0.6727431,-0.737847 -1.1212384,-0.983796 -0.4484954,-0.249566 -0.9512442,-0.376157 -1.5046296,-0.376157 -0.7667824,0 -1.3599537,0.171802 -1.7795138,0.513599 -0.4195602,0.33818 -0.6293403,0.784867 -0.6293403,1.338252 0,0.2568 0.1157407,0.484665 0.3472222,0.687211 0.2350984,0.1989294 0.5425347,0.3761574 0.9186921,0.5353009 0.3761574,0.1555266 0.797526,0.2929687 1.2659143,0.4123264 0.4720052,0.121166 0.9367766,0.2423321 1.3961227,0.3616898 0.4629629,0.121166 0.9006076,0.245949 1.3165508,0.3761574 0.4141352,0.1265914 0.7486982,0.2676504 1.0054972,0.4267939 z M 29.050318,-10.582952 V 9.1983832e-5 H 26.511256 L 26.21467,-1.1283802 c -0.410518,0.55519385 -0.904224,0.92411745 -1.482928,1.1067708 -0.575087,0.18265335 -1.175492,0.27488425 -1.801215,0.27488425 -0.752315,0 -1.44676,-0.14467593 -2.083334,-0.43402777 -0.632957,-0.29296874 -1.184534,-0.69082752 -1.656539,-1.19357638 -0.468388,-0.5063657 -0.835503,-1.0959201 -1.099537,-1.77228 -0.260417,-0.6745515 -0.390625,-1.3961226 -0.390625,-2.162905 0,-0.7703993 0.130208,-1.4937789 0.390625,-2.1701388 0.264034,-0.6745515 0.631149,-1.2622975 1.099537,-1.7650463 0.472005,-0.5063657 1.023582,-0.9042246 1.656539,-1.1935766 0.636574,-0.292968 1.331019,-0.441261 2.083334,-0.441261 0.679976,0 1.303891,0.106698 1.873553,0.318287 0.567853,0.213397 1.03805,0.555194 1.41059,1.0271988 l 0.296586,-1.0489008 z m -2.944155,5.3168405 c 0,-0.5533854 -0.07596,-1.0199653 -0.224248,-1.3961227 -0.150101,-0.3797743 -0.350839,-0.6872106 -0.600405,-0.9186921 -0.245949,-0.2350984 -0.535301,-0.406901 -0.868055,-0.5135995 -0.332755,-0.1048901 -0.692636,-0.1591435 -1.077836,-0.1591435 -0.387008,0 -0.745081,0.079572 -1.077835,0.2387152 -0.332755,0.1555267 -0.627532,0.3653067 -0.882524,0.6293403 -0.256799,0.2604167 -0.455729,0.5714699 -0.600405,0.9331597 -0.141059,0.3616898 -0.20978,0.7432725 -0.20978,1.1429398 0,0.4105179 0.06872,0.7939091 0.20978,1.1501735 0.144676,0.358073 0.343606,0.6691262 0.600405,0.9331597 0.254992,0.2604167 0.549769,0.4701968 0.882524,0.6293403 0.332754,0.1555266 0.690827,0.2314815 1.077835,0.2314815 0.766783,0 1.414207,-0.2387153 1.945891,-0.7161458 0.535301,-0.4774306 0.810185,-1.2044271 0.824653,-2.1846064 z m -0.896991,-8.7890625 c 0.182654,0 0.372541,-0.03798 0.57147,-0.115741 0.202547,-0.08138 0.394242,-0.177228 0.578704,-0.289351 0.188079,-0.115741 0.349031,-0.227865 0.484664,-0.339989 0.133825,-0.11574 0.227865,-0.217014 0.282118,-0.303819 l 0.962095,1.150173 c -0.02894,0.0434 -0.126591,0.173611 -0.289352,0.390625 -0.164569,0.213397 -0.374349,0.437645 -0.62934,0.672743 -0.2568,0.231482 -0.549768,0.444879 -0.882523,0.636574 -0.332755,0.193504 -0.692636,0.289352 -1.077836,0.289352 -0.401475,0 -0.728805,-0.08319 -0.983796,-0.253183 -0.2568,-0.173611 -0.49009,-0.363498 -0.701678,-0.571469 -0.213397,-0.206164 -0.423177,-0.394242 -0.62934,-0.564237 -0.207972,-0.168185 -0.453921,-0.253182 -0.737848,-0.253182 -0.352647,0 -0.692636,0.09946 -1.019965,0.296585 -0.329138,0.19893 -0.598596,0.439453 -0.810185,0.72338 -0.285735,-0.211589 -0.502749,-0.372541 -0.651042,-0.484664 -0.150101,-0.115741 -0.260416,-0.202547 -0.332754,-0.260417 -0.08681,-0.05787 -0.130209,-0.101273 -0.130209,-0.130208 0.02894,-0.05787 0.110316,-0.206164 0.245949,-0.448496 0.133826,-0.240524 0.321904,-0.495515 0.564237,-0.766782 0.245949,-0.269459 0.544343,-0.509983 0.89699,-0.72338 0.356265,-0.211588 0.768591,-0.318287 1.236979,-0.318287 0.428603,0 0.795718,0.085 1.099537,0.253183 0.307437,0.169994 0.575087,0.36169 0.802952,0.578704 0.226056,0.213397 0.428602,0.405092 0.607639,0.578703 0.177228,0.169995 0.358073,0.253183 0.542534,0.253183 z m 14.825665,3.175637 c 0.755932,0 1.468461,0.148293 2.13397,0.441261 0.669126,0.289352 1.253255,0.6872109 1.750579,1.1935766 0.495515,0.5027488 0.889757,1.0904948 1.179109,1.7650463 0.292968,0.6763599 0.441261,1.3997395 0.441261,2.1701388 0,0.7667824 -0.148293,1.4883535 -0.441261,2.162905 -0.289352,0.6763599 -0.683594,1.2659143 -1.179109,1.77228 -0.497324,0.50274886 -1.081453,0.90060764 -1.750579,1.19357638 -0.665509,0.28935184 -1.378038,0.43402777 -2.13397,0.43402777 -0.766782,0 -1.486545,-0.14467593 -2.155671,-0.43402777 -0.665509,-0.29296874 -1.249638,-0.69082752 -1.750578,-1.19357638 -0.497324,-0.5063657 -0.893374,-1.0959201 -1.186343,-1.77228 -0.289352,-0.6745515 -0.434028,-1.3961226 -0.434028,-2.162905 0,-0.7703993 0.144676,-1.4937789 0.434028,-2.1701388 0.292969,-0.6745515 0.689019,-1.2622975 1.186343,-1.7650463 0.50094,-0.5063657 1.085069,-0.9042246 1.750578,-1.1935766 0.669126,-0.292968 1.388889,-0.441261 2.155671,-0.441261 z m 0,8.5575804 c 0.356265,0 0.687211,-0.068721 0.99103,-0.20978 0.307437,-0.144676 0.578704,-0.3417969 0.810186,-0.5931713 0.235098,-0.249566 0.421368,-0.5497685 0.557002,-0.8969907 0.133825,-0.3472222 0.202546,-0.7342303 0.202546,-1.1646412 0,-0.4231771 -0.06872,-0.8192274 -0.202546,-1.1863425 -0.135634,-0.3707321 -0.321904,-0.6944445 -0.557002,-0.9693287 -0.231482,-0.2785012 -0.502749,-0.5009404 -0.810186,-0.6655093 -0.303819,-0.1627604 -0.634765,-0.245949 -0.99103,-0.245949 -0.352647,0 -0.685402,0.083189 -0.998263,0.245949 -0.314671,0.1645689 -0.589555,0.3870081 -0.824653,0.6655093 -0.236907,0.2748842 -0.423177,0.5985966 -0.557003,0.9693287 -0.135633,0.3671151 -0.202546,0.7631654 -0.202546,1.1863425 0,0.4304109 0.06691,0.817419 0.202546,1.1646412 0.133826,0.3472222 0.320096,0.6474247 0.557003,0.8969907 0.235098,0.2513744 0.509982,0.4484953 0.824653,0.5931713 0.312861,0.141059 0.645616,0.20978 0.998263,0.20978 z M 73.993893,-15.125776 h 3.052662 V 9.1983832e-5 H 73.820282 V -9.9825466 l -3.602431,5.0564235 H 67.635386 L 63.989553,-9.8306369 V 9.1983832e-5 H 60.748812 V -15.125776 h 3.06713 l 5.121528,6.9733798 z m 19.96166,4.542824 V 9.1983832e-5 H 91.416491 L 91.119905,-1.1283802 c -0.410518,0.55519385 -0.904224,0.92411745 -1.482928,1.1067708 -0.575087,0.18265335 -1.175492,0.27488425 -1.801215,0.27488425 -0.752315,0 -1.446759,-0.14467593 -2.083334,-0.43402777 -0.632957,-0.29296874 -1.184534,-0.69082752 -1.656539,-1.19357638 -0.468388,-0.5063657 -0.835503,-1.0959201 -1.099537,-1.77228 -0.260416,-0.6745515 -0.390625,-1.3961226 -0.390625,-2.162905 0,-0.7703993 0.130209,-1.4937789 0.390625,-2.1701388 0.264034,-0.6745515 0.631149,-1.2622975 1.099537,-1.7650463 0.472005,-0.5063657 1.023582,-0.9042246 1.656539,-1.1935766 0.636575,-0.292968 1.331019,-0.441261 2.083334,-0.441261 0.679977,0 1.303892,0.106698 1.873553,0.318287 0.567853,0.213397 1.03805,0.555194 1.41059,1.0271988 l 0.296586,-1.0489008 z m -2.944155,5.3168405 c 0,-0.5533854 -0.07595,-1.0199653 -0.224247,-1.3961227 -0.150102,-0.3797743 -0.35084,-0.6872106 -0.600406,-0.9186921 -0.245949,-0.2350984 -0.5353,-0.406901 -0.868055,-0.5135995 -0.332755,-0.1048901 -0.692636,-0.1591435 -1.077836,-0.1591435 -0.387008,0 -0.745081,0.079572 -1.077835,0.2387152 -0.332755,0.1555267 -0.627532,0.3653067 -0.882523,0.6293403 -0.2568,0.2604167 -0.45573,0.5714699 -0.600405,0.9331597 -0.141059,0.3616898 -0.209781,0.7432725 -0.209781,1.1429398 0,0.4105179 0.06872,0.7939091 0.209781,1.1501735 0.144675,0.358073 0.343605,0.6691262 0.600405,0.9331597 0.254991,0.2604167 0.549768,0.4701968 0.882523,0.6293403 0.332754,0.1555266 0.690827,0.2314815 1.077835,0.2314815 0.766783,0 1.414207,-0.2387153 1.945891,-0.7161458 0.535301,-0.4774306 0.810186,-1.2044271 0.824653,-2.1846064 z m 11.628332,-3.8411458 c 0.13925,-0.2260561 0.3002,-0.44307 0.48466,-0.6510416 0.18808,-0.2061632 0.40871,-0.3924331 0.66551,-0.5570021 0.25499,-0.162761 0.54615,-0.292969 0.87529,-0.390625 0.32733,-0.101273 0.69625,-0.15191 1.10677,-0.15191 0.48647,0 1.0489,0.085 1.68547,0.253183 l -0.27488,2.6258679 c -0.15914,-0.028935 -0.31648,-0.065104 -0.4702,-0.1085069 -0.13021,-0.028935 -0.27307,-0.052445 -0.42679,-0.072338 -0.15553,-0.018085 -0.29659,-0.028935 -0.4268,-0.028935 -0.45392,0 -0.87528,0.065104 -1.26591,0.1953125 -0.39062,0.1265915 -0.7288,0.302011 -1.01273,0.5280671 -0.28574,0.2278646 -0.5136,0.5027489 -0.68721,0.8246528 -0.17,0.318287 -0.25318,0.6618923 -0.25318,1.027199 V 9.1983832e-5 H 99.69557 V -10.582952 h 2.66204 z m 14.97034,0.853588 c -0.35265,0 -0.68541,0.083189 -0.99827,0.245949 -0.31467,0.1645689 -0.58955,0.3870081 -0.82465,0.6655093 -0.23691,0.2748842 -0.42318,0.5985966 -0.557,0.9693287 -0.13564,0.3671151 -0.20255,0.7631654 -0.20255,1.1863425 0,0.4304109 0.0669,0.817419 0.20255,1.1646412 0.13382,0.3472222 0.32009,0.6474247 0.557,0.8969907 0.2351,0.2513744 0.50998,0.4484953 0.82465,0.5931713 0.31286,0.141059 0.64562,0.20978 0.99827,0.20978 0.44307,0 0.87529,-0.1030815 1.29485,-0.3110532 0.41956,-0.2061632 0.77763,-0.495515 1.07783,-0.8680555 l 1.80845,1.7939814 c -0.49732,0.5985966 -1.11039,1.07602718 -1.83738,1.43229163 -0.72338,0.35083911 -1.50463,0.52806712 -2.34375,0.52806712 -0.76679,0 -1.48655,-0.14467593 -2.15567,-0.43402777 -0.66551,-0.29296874 -1.24964,-0.69082752 -1.75058,-1.19357638 -0.49733,-0.5063657 -0.89338,-1.0959201 -1.18635,-1.77228 -0.28935,-0.6745515 -0.43402,-1.3961226 -0.43402,-2.162905 0,-0.7703993 0.14467,-1.4937789 0.43402,-2.1701388 0.29297,-0.6745515 0.68902,-1.2622975 1.18635,-1.7650463 0.50094,-0.5063657 1.08507,-0.9042246 1.75058,-1.1935766 0.66912,-0.292968 1.38888,-0.441261 2.15567,-0.441261 0.86805,0 1.671,0.18627 2.40885,0.557002 0.74146,0.3671152 1.369,0.8716724 1.88079,1.5118634 l -2.04717,1.5769675 c -0.41594,-0.3797743 -0.78848,-0.6456163 -1.12124,-0.7957175 -0.33275,-0.1482929 -0.7071,-0.2242477 -1.12123,-0.2242477 z m 14.86545,-2.6258677 c 0.75593,0 1.46846,0.148293 2.13397,0.441261 0.66912,0.289352 1.25325,0.6872109 1.75058,1.1935766 0.49551,0.5027488 0.88975,1.0904948 1.1791,1.7650463 0.29297,0.6763599 0.44127,1.3997395 0.44127,2.1701388 0,0.7667824 -0.1483,1.4883535 -0.44127,2.162905 -0.28935,0.6763599 -0.68359,1.2659143 -1.1791,1.77228 -0.49733,0.50274886 -1.08146,0.90060764 -1.75058,1.19357638 -0.66551,0.28935184 -1.37804,0.43402777 -2.13397,0.43402777 -0.76679,0 -1.48655,-0.14467593 -2.15567,-0.43402777 -0.66551,-0.29296874 -1.24964,-0.69082752 -1.75058,-1.19357638 -0.49733,-0.5063657 -0.89338,-1.0959201 -1.18635,-1.77228 -0.28935,-0.6745515 -0.43402,-1.3961226 -0.43402,-2.162905 0,-0.7703993 0.14467,-1.4937789 0.43402,-2.1701388 0.29297,-0.6745515 0.68902,-1.2622975 1.18635,-1.7650463 0.50094,-0.5063657 1.08507,-0.9042246 1.75058,-1.1935766 0.66912,-0.292968 1.38888,-0.441261 2.15567,-0.441261 z m 0,8.5575804 c 0.35626,0 0.68721,-0.068721 0.99103,-0.20978 0.30743,-0.144676 0.5787,-0.3417969 0.81018,-0.5931713 0.2351,-0.249566 0.42137,-0.5497685 0.557,-0.8969907 0.13383,-0.3472222 0.20255,-0.7342303 0.20255,-1.1646412 0,-0.4231771 -0.0687,-0.8192274 -0.20255,-1.1863425 -0.13563,-0.3707321 -0.3219,-0.6944445 -0.557,-0.9693287 -0.23148,-0.2785012 -0.50275,-0.5009404 -0.81018,-0.6655093 -0.30382,-0.1627604 -0.63477,-0.245949 -0.99103,-0.245949 -0.35265,0 -0.6854,0.083189 -0.99827,0.245949 -0.31467,0.1645689 -0.58955,0.3870081 -0.82465,0.6655093 -0.23691,0.2748842 -0.42318,0.5985966 -0.557,0.9693287 -0.13564,0.3671151 -0.20255,0.7631654 -0.20255,1.1863425 0,0.4304109 0.0669,0.817419 0.20255,1.1646412 0.13382,0.3472222 0.32009,0.6474247 0.557,0.8969907 0.2351,0.2513744 0.50998,0.4484953 0.82465,0.5931713 0.31287,0.141059 0.64562,0.20978 0.99827,0.20978 z m 17.64503,-3.226273 c 0.78125,0.5551939 1.17188,1.3454861 1.17188,2.3726851 0,0.4683883 -0.11212,0.9096499 -0.33276,1.3237847 -0.22243,0.4105179 -0.52625,0.7722077 -0.91145,1.0850694 -0.38159,0.31467013 -0.82827,0.5606192 -1.33826,0.7378472 -0.51179,0.17361111 -1.05975,0.26041666 -1.64207,0.26041666 -0.43945,0 -0.86805,-0.0578704 -1.28761,-0.17361111 -0.41956,-0.11031539 -0.80838,-0.26403355 -1.16464,-0.46296295 -0.35808,-0.19712094 -0.66913,-0.43402776 -0.93316,-0.708912 -0.26042,-0.2785012 -0.45573,-0.5895544 -0.58594,-0.9331597 0.32733,-0.1591435 0.68902,-0.3327546 1.08507,-0.5208333 0.39966,-0.1916956 0.7487,-0.3689236 1.0489,-0.5280671 0.13021,0.2170139 0.32914,0.4159432 0.6004,0.5931712 0.26946,0.1736112 0.63839,0.2604167 1.10677,0.2604167 0.48648,0 0.84274,-0.1121238 1.07061,-0.3399884 0.22605,-0.2260561 0.33998,-0.4376447 0.33998,-0.6365741 0,-0.1446759 -0.0796,-0.2766927 -0.23871,-0.3978587 -0.15553,-0.1193577 -0.33095,-0.2170139 -0.52807,-0.2893519 -0.28573,-0.1103154 -0.52083,-0.1681857 -0.70891,-0.1736111 -0.18446,-0.00904 -0.39605,-0.050637 -0.63657,-0.1229745 -0.76679,-0.1826534 -1.35272,-0.426794 -1.75782,-0.7306134 -0.40509,-0.3074364 -0.70167,-0.6184896 -0.88975,-0.9331597 -0.18447,-0.3128617 -0.28755,-0.6112558 -0.31106,-0.8969907 -0.0199,-0.2839265 -0.0289,-0.5099827 -0.0289,-0.6799769 0,-0.4575376 0.0977,-0.8915653 0.29658,-1.3020833 0.20255,-0.4141348 0.47743,-0.7740161 0.82466,-1.0778356 0.34722,-0.3038199 0.75231,-0.5461519 1.21527,-0.7306129 0.46297,-0.188079 0.95667,-0.282119 1.48293,-0.282119 0.43765,0 0.8554,0.06511 1.25145,0.195313 0.39967,0.126591 0.76316,0.302011 1.0923,0.528067 0.32733,0.2278647 0.60764,0.4973236 0.83912,0.8101852 0.2351,0.3146702 0.41233,0.6637008 0.52807,1.0489005 l -2.27865,0.7667824 c -0.0868,-0.2549914 -0.26403,-0.4593461 -0.52806,-0.6148727 -0.26042,-0.1591435 -0.54073,-0.2387153 -0.83912,-0.2387153 -0.30021,0 -0.54254,0.1012732 -0.73062,0.3038195 -0.18446,0.1989294 -0.27488,0.3960503 -0.27488,0.5931712 0,0.2423322 0.0886,0.4304109 0.26765,0.5642361 0.17723,0.1356337 0.37254,0.2314815 0.58594,0.2893519 0.15914,0.028935 0.31286,0.056062 0.46296,0.079572 0.14829,0.019893 0.29297,0.041594 0.43403,0.065104 0.49551,0.1157407 0.92592,0.2459491 1.28761,0.390625 0.36531,0.141059 0.6836,0.3092448 0.95486,0.5063657 z m 0,0"
           style="fill:#e6e6e6;fill-opacity:1;fill-rule:nonzero;stroke:none"
           aria-label="São Marcos"
           transform="matrix(2.1600001,0,0,2.1600001,457.63803,601.24199)" />
      </g>
    </g>
  </g>
</svg>
